<?xml version="1.0" encoding="utf-8"?>
<!-- Generator: Adobe Illustrator 16.0.0, SVG Export Plug-In . SVG Version: 6.00 Build 0)  -->
<!DOCTYPE svg PUBLIC "-//W3C//DTD SVG 1.1//EN" "http://www.w3.org/Graphics/SVG/1.1/DTD/svg11.dtd">
<svg version="1.1" id="Layer_1" xmlns="http://www.w3.org/2000/svg" xmlns:xlink="http://www.w3.org/1999/xlink" x="0px" y="0px"
	 width="32px" height="32px" viewBox="0 0 32 32" enable-background="new 0 0 32 32" xml:space="preserve">
<g>
	<path fill="#FFFFFF" d="M13,3.75c-5.101,0-9.25,4.149-9.25,9.25c0,5.102,4.149,9.25,9.25,9.25c5.102,0,9.25-4.148,9.25-9.25
		C22.25,7.899,18.102,3.75,13,3.75z"/>
	<path fill="#614321" d="M27.042,25.982h-0.146l-0.002-0.147l-5.785-5.784l0.146-0.176c1.609-1.93,2.495-4.371,2.495-6.874
		c0-5.928-4.821-10.75-10.75-10.75C7.073,2.251,2.25,7.072,2.25,13S7.072,23.75,13,23.75c2.503,0,4.943-0.886,6.873-2.494
		l0.176-0.146l8.422,8.421c0.282,0.282,0.776,0.282,1.061,0c0.142-0.142,0.22-0.33,0.22-0.53s-0.079-0.389-0.222-0.53L27.042,25.982
		z M13,22.25c-5.101,0-9.25-4.148-9.25-9.25c0-5.101,4.149-9.25,9.25-9.25c5.102,0,9.25,4.149,9.25,9.25
		C22.25,18.102,18.102,22.25,13,22.25z"/>
</g>
</svg>
